<?xml version="1.0" encoding="utf-8"?>
<!-- Generator: Adobe Illustrator 18.0.0, SVG Export Plug-In . SVG Version: 6.00 Build 0)  -->
<!DOCTYPE svg PUBLIC "-//W3C//DTD SVG 1.1//EN" "http://www.w3.org/Graphics/SVG/1.1/DTD/svg11.dtd">
<svg version="1.1" id="Layer_1" xmlns="http://www.w3.org/2000/svg" xmlns:xlink="http://www.w3.org/1999/xlink" x="0px" y="0px"
	 viewBox="0 0 700 700" enable-background="new 0 0 700 700" xml:space="preserve">
<rect x="-5" opacity="0.83" fill="#1B5360" enable-background="new    " width="705" height="706"/>
<path opacity="0.76" fill="#1FB262" enable-background="new    " d="M393.4,156.1c5.8,27.3,4.5,66.7-0.2,108.4
	c-8.8,77.9-29.3,164.6-38.2,199.8c-0.9,3.4-3.5,5.5-6.3,6.2c-2.9,0.7-6.2-0.3-8.3-3C306,424.7,198,285.4,180.1,201.4
	c-12.5-58.9,25.1-116.8,84-129.3c43.3-9.2,86.1,8.7,110.7,42.3C383.6,126.4,390.1,140.5,393.4,156.1z"/>
<path opacity="0.8" fill="#D9F0F6" enable-background="new    " d="M393,154.3c14.8,69.8-51.9,113.8-71.9,125.2
	c-3.4,1.8-5,5.7-4.4,9.4l31.7,176.4c1.3,5.4-4.6,6.7-8.2,2.2c-32.1-39.8-142.5-179.8-160.7-268c-12.1-59,25.1-116.8,84-129.3
	S380.5,95.3,393,154.3z"/>
<text transform="matrix(1 0 0 1 224.855 592.9161)" fill="#FFFFFF" font-family="'DINCondensed-Bold'" font-size="103.4352">PinThere</text>
<path display="none" opacity="0.97" fill="#D9F0F6" enable-background="new    " d="M392.7,154.5c14.8,69.8-51.7,113.5-71.7,124.9
	c-3.3,1.9-5,5.6-4.3,9.4l31.7,176c1.3,5.4-4.6,6.7-8.2,2.2C308.1,427.4,198,287.6,179.8,199.7c-12.1-58.8,25-116.5,83.7-129
	S380.2,95.7,392.7,154.5z"/>
<circle opacity="0.79" fill="#1B5360" enable-background="new    " cx="287.4" cy="178.2" r="36.7"/>
</svg>
