<?xml version="1.0" encoding="utf-8"?>
<!-- Generator: Adobe Illustrator 18.0.0, SVG Export Plug-In . SVG Version: 6.00 Build 0)  -->
<!DOCTYPE svg PUBLIC "-//W3C//DTD SVG 1.1//EN" "http://www.w3.org/Graphics/SVG/1.1/DTD/svg11.dtd">
<svg version="1.1" id="Layer_1" xmlns="http://www.w3.org/2000/svg" xmlns:xlink="http://www.w3.org/1999/xlink" x="0px" y="0px"
	 viewBox="0 0 700 700" enable-background="new 0 0 700 700" xml:space="preserve">
<rect x="-6.4" y="-2.1" opacity="0.83" fill="#1B5360" enable-background="new    " width="706.4" height="702.1"/>
<path opacity="0.76" fill="#1FB262" enable-background="new    " d="M403.4,147.5c6,28.4,4.7,69.3-0.2,112.7
	c-9.1,81-30.5,171.1-39.7,207.7c-0.9,3.5-3.6,5.7-6.6,6.4c-3,0.7-6.4-0.3-8.6-3.1c-35.7-44.5-148-189.3-166.6-276.6
	c-13-61.2,26.1-121.4,87.3-134.4c45-9.6,89.5,9,115.1,44C393.3,116.6,400,131.3,403.4,147.5z"/>
<path opacity="0.8" fill="#D9F0F6" enable-background="new    " d="M403,145.6c15.4,72.6-53.9,118.3-74.7,130.1
	c-3.5,1.9-5.2,5.9-4.6,9.8l33,183.4c1.4,5.6-4.8,7-8.5,2.3c-33.4-41.4-148.1-186.9-167-278.6c-12.6-61.3,26.1-121.4,87.3-134.4
	S390,84.3,403,145.6z"/>
<circle opacity="0.79" fill="#1B5360" enable-background="new    " cx="293.3" cy="170.5" r="38.1"/>
<text transform="matrix(1 0 0 1 228.24 601.5222)" fill="#FFFFFF" font-family="'DINCondensed-Bold'" font-size="107.5135">PinThere</text>
</svg>
