<?xml version="1.0" encoding="utf-8"?>
<!-- Generator: Adobe Illustrator 18.0.0, SVG Export Plug-In . SVG Version: 6.00 Build 0)  -->
<!DOCTYPE svg PUBLIC "-//W3C//DTD SVG 1.1//EN" "http://www.w3.org/Graphics/SVG/1.1/DTD/svg11.dtd">
<svg version="1.1" id="Layer_1" xmlns="http://www.w3.org/2000/svg" xmlns:xlink="http://www.w3.org/1999/xlink" x="0px" y="0px"
	 viewBox="0 0 700 700" enable-background="new 0 0 700 700" xml:space="preserve">
<rect x="-7" y="-6" opacity="0.83" fill="#1B5360" enable-background="new    " width="716" height="707.4"/>
<path opacity="0.76" fill="#1FB262" enable-background="new    " d="M471,194.1c8,37.6,6.3,91.8-0.3,149.4
	c-12.1,107.3-40.4,226.7-52.6,275.2c-1.2,4.6-4.7,7.6-8.7,8.5s-8.5-0.4-11.4-4.1c-47.4-58.9-196.1-250.8-220.8-366.6
	C160,175.3,211.8,95.6,292.9,78.3c59.7-12.7,118.6,11.9,152.5,58.3C457.6,153.2,466.4,172.6,471,194.1z"/>
<path opacity="0.97" fill="#D9F0F6" enable-background="new    " d="M470.4,191.6c20.4,96.3-71.4,156.7-99,172.4
	c-4.6,2.6-6.9,7.8-6,13l43.8,243c1.8,7.4-6.4,9.2-11.3,3.1C353.6,568.3,201.7,375.4,176.6,254c-16.7-81.2,34.5-160.8,115.6-178.1
	S453.2,110.4,470.4,191.6z"/>
<circle opacity="0.79" fill="#1B5360" enable-background="new    " cx="325.1" cy="224.6" r="50.4"/>
</svg>
