<?xml version="1.0" encoding="utf-8"?>
<!-- Generator: Adobe Illustrator 18.0.0, SVG Export Plug-In . SVG Version: 6.00 Build 0)  -->
<!DOCTYPE svg PUBLIC "-//W3C//DTD SVG 1.1//EN" "http://www.w3.org/Graphics/SVG/1.1/DTD/svg11.dtd">
<svg version="1.1" id="Layer_1" xmlns="http://www.w3.org/2000/svg" xmlns:xlink="http://www.w3.org/1999/xlink" x="0px" y="0px"
	 viewBox="0 0 700 700" enable-background="new 0 0 700 700" xml:space="preserve">
<linearGradient id="SVGID_1_" gradientUnits="userSpaceOnUse" x1="128.5914" y1="273.6674" x2="364.2342" y2="273.6674" gradientTransform="matrix(1.2835 0 0 1.2835 8.8559 -2.687359e-02)">
	<stop  offset="0" style="stop-color:#42974F"/>
	<stop  offset="0.3929" style="stop-color:#56BA62"/>
</linearGradient>
<path fill="url(#SVGID_1_)" d="M471,194.1c8,37.6,6.3,91.8-0.3,149.4c-12.1,107.3-40.4,226.7-52.6,275.2c-1.2,4.6-4.7,7.6-8.7,8.5
	s-8.5-0.4-11.4-4.1c-47.4-58.9-196.1-250.8-220.8-366.6C160,175.3,211.8,95.6,292.9,78.3c59.7-12.7,118.6,11.9,152.5,58.3
	C457.6,153.2,466.4,172.6,471,194.1z"/>
<path fill="#205463" d="M470.4,191.6c20.4,96.3-71.4,156.7-99,172.4c-4.6,2.6-6.9,7.8-6,13l43.8,243c1.8,7.4-6.4,9.2-11.3,3.1
	C353.6,568.3,201.7,375.4,176.6,254c-16.7-81.2,34.5-160.8,115.6-178.1S453.2,110.4,470.4,191.6z"/>
<circle fill="#FFFFFF" cx="326.8" cy="220.6" r="50.4"/>
</svg>
